<?xml version="1.0" encoding="UTF-8"?>
<svg width="111px" height="31px" viewBox="0 0 110 30" version="1.1" xmlns="http://www.w3.org/2000/svg" xmlns:xlink="http://www.w3.org/1999/xlink">
    <g>
        <g fill="#ffffff">
            <g id="logo-copy">
                <path d="M98.7320943,16.3051295 C104.075994,16.3051295 107.693288,13.4694162 107.693288,9.13241685 L107.693288,9.04987496 C107.693288,4.41998502 104.157817,2.00230647 98.9784396,2.00230647 L90.8402932,2.00230647 L90.8402932,16.3051295 L98.7320943,16.3051295 Z M88.7032585,0.000443773597 L99.1429615,0.000443773597 C105.473117,0.000443773597 109.829447,3.29413141 109.829447,8.92428703 L109.829447,9.00771647 C109.829447,15.1366736 104.609815,18.3065484 98.609578,18.3065484 L90.8402932,18.3065484 L90.8402932,29.3920129 L88.7032585,29.3920129 L88.7032585,0.000443773597 Z" id="Fill-1"></path>
                <path d="M15.9178014,1.00878614 C15.9051122,0.977278215 15.8911104,0.94710161 15.8762334,0.916481232 L15.8613564,0.88408576 L15.8604813,0.88408576 C15.5948834,0.360432915 15.0575618,8.87547193e-05 14.4362291,8.87547193e-05 C13.7969564,8.87547193e-05 13.2465081,0.381734048 12.9892238,0.932013308 L12.9730342,0.932013308 L-0.000131267484,29.3925454 L2.22003945,29.3925454 L14.1990725,2.78698694 C14.2717072,2.62412203 14.4992375,2.62412203 14.5731848,2.78698694 L21.9491047,19.2594191 L26.5115249,29.3925454 L28.854212,29.3925454 L15.9178014,1.00878614 Z" id="Fill-4"></path>
                <path d="M69.8780574,0.000310641518 C69.4658775,0.000310641518 69.1048919,0.207552911 68.880862,0.522188391 L57.6618677,17.2919488 C57.6062978,17.3753783 57.4859693,17.3753783 57.4290867,17.2919488 L46.2100924,0.522188391 C45.9869377,0.207552911 45.625077,0.000310641518 45.2142098,0.000310641518 C44.5333691,0.000310641518 43.9820457,0.517750655 43.9820457,1.2078186 L43.9820457,29.3918797 L46.0372569,29.3918797 L46.0372569,4.03909415 L56.4087008,19.3501708 C56.9372712,20.129881 58.0709847,20.1307685 58.6004303,19.3501708 L68.9727493,4.03909415 L68.9727493,29.3918797 L71.1097839,29.3918797 L71.1097839,1.2078186 C71.1097839,0.517750655 70.5580229,0.000310641518 69.8780574,0.000310641518" id="Fill-7"></path>
            </g>
        </g>
    </g>
</svg>