<svg id="Layer_1" data-name="Layer 1" xmlns="http://www.w3.org/2000/svg" viewBox="0 0 841.89 484"><defs><style>.cls-1{fill:#fff;}</style></defs><title>Artboard 1</title><path class="cls-1" d="M.7,1.28H171.1c98.73,0,132.54,72.35,132.54,144.71,0,100.08-61.53,145.38-153.5,145.38H98.07V484.1H.7ZM98.07,219.69h43.28c38.55,0,64.92-23,64.92-72.35C206.27,100,187.33,73,138.65,73H98.07Z"/><path class="cls-1" d="M693.39,1.28c114.38,0,148.5,62.21,148.5,230.1,0,131.78-7.36,252.86-148.5,252.86-114.39,0-148.5-62.21-148.5-230.11C544.89,123,552.25,1.28,693.39,1.28ZM641.21,274.87c0,119.06,10.71,146.49,52.18,146.49,42.14,0,52.18-37.46,52.18-159.2V210.65c0-119.07-10.71-146.5-52.18-146.5-42.14,0-52.18,37.46-52.18,159.21Z"/><path class="cls-1" d="M432.37,484.1V155.74s-88.09-.18-107.86-.18c0-36.43-6.77-60.46-6.77-60.46h12.81c58.21,0,93.15-23.58,102.32-74.66h93.81V484.1Z"/><path class="cls-1" d="M320.9,484.1V287.16s-52.22-.27-72-.27c46.13-17.67,70.47-61.78,74.87-108.45h88.41V484.1Z"/></svg>