<svg id="Layer_1" data-name="Layer 1" xmlns="http://www.w3.org/2000/svg" xmlns:xlink="http://www.w3.org/1999/xlink" viewBox="0 0 545.1 237"><defs><style>.cls-1{fill:url(#linear-gradient);}.cls-2{fill:#e5e5e5;}</style><linearGradient id="linear-gradient" x1="48.87" y1="118.06" x2="502.87" y2="118.06" gradientUnits="userSpaceOnUse"><stop offset="0.19" stop-color="#ccc"/><stop offset="0.46" stop-color="#fff"/><stop offset="0.63" stop-color="#e3e3e3"/><stop offset="0.74" stop-color="#ccc"/></linearGradient></defs><title>Artboard 1</title><path class="cls-1" d="M190.17,48.18c-3.58-2.93-9.14-4.35-17-4.35H81.23l-7,32.76h0L49.87,192.3H87L96.75,146h55.83c9.78,0,17.18-2.29,22-6.8s8.1-11.19,10-20.14l10-47.34,0-.13c.29-1.85.54-3.52.75-5a32.65,32.65,0,0,0,.34-4.68C195.71,55.81,193.85,51.19,190.17,48.18ZM156.84,80.51l-6.15,28.24c-.81,3.69-1.64,5-2.07,5.46s-1.28,1-3.9,1H103.28l8.07-38.57h42.5a7.8,7.8,0,0,1,3.2.43,2,2,0,0,1,.17,1A14.91,14.91,0,0,1,156.84,80.51Z"/><polygon class="cls-1" points="212.87 75.95 234.84 75.95 210.21 192.3 245.42 192.3 276.78 43.83 219.6 43.83 212.87 75.95"/><polygon class="cls-1" points="291.07 75.95 313.04 75.95 288.41 192.3 323.62 192.3 354.98 43.83 297.79 43.83 291.07 75.95"/><path class="cls-1" d="M487.9,48.18c-3.58-2.93-9.14-4.35-17-4.35H403.39c-9.78,0-17.18,2.28-22,6.79s-8.11,11.2-10,20.14l-19.74,93.59a46.14,46.14,0,0,0-1.33,10.08c0,6,1.9,10.52,5.66,13.53s9.24,4.34,17.09,4.34h67.51c9.78,0,17.19-2.29,22-6.8s8.1-11.19,10-20.13l19.74-93.63,0-.13c.28-1.85.53-3.52.74-5a32.75,32.75,0,0,0,.34-4.68C493.44,55.81,491.58,51.19,487.9,48.18ZM455.37,78.89a11,11,0,0,1-.09,1.4c-.06.49-.16,1.08-.29,1.73l-15.27,71.51a7.31,7.31,0,0,1-2.14,4.19c-.55.44-2,1.18-5.74,1.18h-39.7c-3.79,0-3.79-1.22-3.79-1.88a15.46,15.46,0,0,1,.37-2.48L404,82.81c.75-3.27,1.66-4.68,2.29-5.27.8-.76,2.37-1.16,4.53-1.16h39.7c3.08,0,4.08.51,4.31.66C455.3,77.35,455.37,78.33,455.37,78.89Z"/><path class="cls-2" d="M498.65,236.17H.8L48.45,0H544.57ZM13,226.17H490.4L532.43,10H56.63Z"/></svg>