<?xml version="1.0" encoding="UTF-8"?>
<svg width="20px" height="17px" viewBox="0 0 20 17" version="1.1" xmlns="http://www.w3.org/2000/svg" xmlns:xlink="http://www.w3.org/1999/xlink">
    <g fill="#FFFFFF" >
            <path d="M20,2.0113675 C19.2638877,2.35268819 18.4740498,2.58416798 17.6441792,2.68751144 C18.4915335,2.15653395 19.140162,1.31432916 19.4475808,0.313860464 C18.6527429,0.805579751 17.7753885,1.16263108 16.8405504,1.35618635 C16.0919544,0.520513197 15.0271487,0 13.8461011,0 C11.5802804,0 9.7431205,1.92245519 9.7431205,4.2921735 C9.7431205,4.62826205 9.77936238,4.95651947 9.8493625,5.27041413 C6.44001052,5.09122162 3.41683565,3.3819508 1.39346633,0.78465116 C1.03977294,1.41763843 0.838563462,2.15520026 0.838563462,2.94251879 C0.838563462,4.43210781 1.56343393,5.74643697 2.66323965,6.51539169 C1.99085293,6.49186412 1.35846627,6.29830886 0.804837916,5.97658307 L0.804837916,6.03020404 C0.804837916,8.10958945 2.21957879,9.84502101 4.09546421,10.2399969 C3.75177084,10.3367745 3.38935194,10.3903955 3.01441669,10.3903955 C2.74948162,10.3903955 2.49327205,10.3629352 2.24206249,10.3106138 C2.76444896,12.0172856 4.27919,13.2583647 6.07386613,13.2923908 C4.67036711,14.4432581 2.90069101,15.1272331 0.97856369,15.1272331 C0.647386679,15.1272331 0.321176995,15.1063045 0,15.06838 C1.815918,16.2885647 3.9717712,17 6.28883381,17 C13.8361664,17 17.9616633,10.4584134 17.9616633,4.78522647 L17.9479051,4.22942193 C18.7539849,3.62779335 19.451339,2.8719019 20,2.0113675 Z"></path>
    </g>
</svg>