<?xml version="1.0" encoding="UTF-8"?>
<svg width="31px" height="22px" viewBox="0 0 31 22" version="1.1" xmlns="http://www.w3.org/2000/svg" xmlns:xlink="http://www.w3.org/1999/xlink">
    <g>
        <g fill="#FFFFFF">
                <path d="M29.7917,1.88854359 C28.6727,0.547161336 26.6067,0 22.6611,0 L8.3386,0 C4.3027,0 2.2017,0.582455561 1.0869,2.01056077 C0,3.40296838 0,5.45457129 0,8.29404215 L0,13.7060587 C0,19.2070167 1.2896,22 8.3386,22 L22.6612,22 C26.0828,22 27.9788,21.517175 29.2054,20.3334067 C30.4633,19.119487 31,17.1374641 31,13.7060587 L31,8.29404215 C31,5.29957922 30.9159,3.23587543 29.7917,1.88854359 Z M19.9021,11.7472292 L13.3983,15.1749035 C13.2529,15.2515424 13.0939,15.2895593 12.9351,15.2895593 C12.7553,15.2895593 12.5759,15.2407525 12.417,15.1437438 C12.1178,14.9609197 11.9351,14.6338935 11.9351,14.2811529 L11.9351,7.44778746 C11.9351,7.09565193 12.1173,6.76892825 12.4159,6.58600332 C12.7146,6.40307839 13.0861,6.39057415 13.396,6.55292759 L19.8998,9.95851783 C20.2307,10.1317621 20.4385,10.4762337 20.439,10.8520668 C20.4394,11.2282024 20.2325,11.5731782 19.9021,11.7472292 Z"></path>
        </g>
    </g>
</svg>