<svg xmlns="http://www.w3.org/2000/svg" viewBox="0 0 31 22"><defs><style>.cls-1{fill:#ff0000}.cls-2{fill:#fff;}</style></defs><g class="cls-1"><path d="M29.79,1.89C28.67.55,26.61,0,22.66,0H8.34C4.3,0,2.2.58,1.09,2S0,5.45,0,8.29v5.42C0,19.21,1.29,22,8.34,22H22.66c3.42,0,5.32-.48,6.55-1.67S31,17.14,31,13.71V8.29C31,5.3,30.92,3.24,29.79,1.89Z"/></g><path class="cls-2" d="M19.9,11.75l-6.5,3.42a1,1,0,0,1-1,0,1,1,0,0,1-.48-.86V7.45a1,1,0,0,1,.48-.86,1,1,0,0,1,1,0L19.9,10a1,1,0,0,1,.54.89A1,1,0,0,1,19.9,11.75Z"/></svg>